<svg id="Capa_1" data-name="Capa 1" xmlns="http://www.w3.org/2000/svg" viewBox="0 0 760.7 273.89"><defs><style>.cls-1{fill:#ff4438;}.cls-2{fill:#ff6c37;}.cls-3{fill:#ffa400;}</style></defs><path class="cls-1" d="M111.49,273.65V244.21h10.64q3.8,0,5.7,1.88c1.27,1.25,1.9,3.15,1.9,5.68a8.4,8.4,0,0,1-.56,3.2,6,6,0,0,1-1.5,2.22,5.13,5.13,0,0,1-2.1,1.18,8.33,8.33,0,0,1,1.7.66,6.37,6.37,0,0,1,1.7,1.3,6.45,6.45,0,0,1,1.3,2.12,8.42,8.42,0,0,1,.5,3,10,10,0,0,1-1,4.9,5.53,5.53,0,0,1-2.84,2.52,11.65,11.65,0,0,1-4.4.74Zm3.2-16.4h7.64a4,4,0,0,0,3.1-1.36,5.47,5.47,0,0,0,1.26-3.68c0-1.89-.35-3.22-1.22-4a4.89,4.89,0,0,0-3.34-1.14h-7.44Zm0,13.56h7.76a7,7,0,0,0,2.78-.5,3.65,3.65,0,0,0,1.84-1.76,7.85,7.85,0,0,0,.66-3.58,5.32,5.32,0,0,0-.7-2.8,4.72,4.72,0,0,0-1.9-1.78,5.78,5.78,0,0,0-2.68-.62h-7.76Z"/><path class="cls-1" d="M145.93,273.69a6.5,6.5,0,0,1-3.08-.66,4.2,4.2,0,0,1-1.88-2.16,10.48,10.48,0,0,1-.64-4.06V243.13h3.16v23.28a8.87,8.87,0,0,0,.36,2.9,2.45,2.45,0,0,0,1,1.36,4.49,4.49,0,0,0,1.6.5l2.16.24v2.28Z"/><path class="cls-1" d="M165.33,273.89a15.33,15.33,0,0,1-4.06-.48,6.24,6.24,0,0,1-2.9-1.68,7.39,7.39,0,0,1-1.72-3.34,22.23,22.23,0,0,1-.56-5.46,22.47,22.47,0,0,1,.56-5.5,7.25,7.25,0,0,1,1.72-3.32,6.26,6.26,0,0,1,2.9-1.64,15.81,15.81,0,0,1,4.06-.46,15.33,15.33,0,0,1,4.06.48,6.38,6.38,0,0,1,2.9,1.66,7.47,7.47,0,0,1,1.74,3.32,26.18,26.18,0,0,1,0,11,7.55,7.55,0,0,1-1.72,3.32,6.2,6.2,0,0,1-2.9,1.66A15.54,15.54,0,0,1,165.33,273.89Zm0-2.6A10.85,10.85,0,0,0,168,271a3.65,3.65,0,0,0,1.9-1.12,5.69,5.69,0,0,0,1.16-2.52,19.66,19.66,0,0,0,.4-4.44,19.36,19.36,0,0,0-.4-4.44,5.68,5.68,0,0,0-1.16-2.48,3.72,3.72,0,0,0-1.9-1.12,12.49,12.49,0,0,0-5.26,0,3.7,3.7,0,0,0-1.88,1.12,5.68,5.68,0,0,0-1.16,2.48,19.36,19.36,0,0,0-.4,4.44,19.66,19.66,0,0,0,.4,4.44,5.69,5.69,0,0,0,1.16,2.52,3.64,3.64,0,0,0,1.88,1.12A10.85,10.85,0,0,0,165.33,271.29Z"/><path class="cls-1" d="M192.45,273.89a11.37,11.37,0,0,1-3.36-.48,6.29,6.29,0,0,1-2.72-1.68,8.06,8.06,0,0,1-1.8-3.32,18.91,18.91,0,0,1-.64-5.4,20.72,20.72,0,0,1,.6-5.46,7.91,7.91,0,0,1,1.72-3.34,6,6,0,0,1,2.72-1.68,12.36,12.36,0,0,1,3.56-.48c1.07,0,2.23,0,3.48.14s2.45.23,3.6.42v1.88h-6.24a7.87,7.87,0,0,0-3.44.68,4.42,4.42,0,0,0-2.12,2.54,15.56,15.56,0,0,0-.72,5.38,13.81,13.81,0,0,0,.76,5.2,4.51,4.51,0,0,0,2.16,2.46,7.93,7.93,0,0,0,3.4.66h6.52v1.84c-.61.11-1.33.21-2.14.32s-1.67.19-2.58.24S193.38,273.89,192.45,273.89Z"/><path class="cls-1" d="M209.05,273.65V243.13h3.16v17.68h3l6.52-8.52h3.36l-7.52,10,8,11.4h-3.36l-7.12-10h-2.92v10Z"/><path class="cls-1" d="M241.81,273.89a11.37,11.37,0,0,1-3.36-.48,6.29,6.29,0,0,1-2.72-1.68,8.06,8.06,0,0,1-1.8-3.32,18.91,18.91,0,0,1-.64-5.4,20.72,20.72,0,0,1,.6-5.46,7.91,7.91,0,0,1,1.72-3.34,6,6,0,0,1,2.72-1.68,12.36,12.36,0,0,1,3.56-.48c1.07,0,2.23,0,3.48.14s2.45.23,3.6.42v1.88h-6.24a7.87,7.87,0,0,0-3.44.68,4.42,4.42,0,0,0-2.12,2.54,15.56,15.56,0,0,0-.72,5.38,13.81,13.81,0,0,0,.76,5.2,4.51,4.51,0,0,0,2.16,2.46,7.93,7.93,0,0,0,3.4.66h6.52v1.84c-.61.11-1.33.21-2.14.32s-1.67.19-2.58.24S242.74,273.89,241.81,273.89Z"/><path class="cls-1" d="M258.41,273.65V243.13h3.16v11.52a16.35,16.35,0,0,1,3.54-1.9,11.46,11.46,0,0,1,4.3-.82,6.61,6.61,0,0,1,3.7,1,5.79,5.79,0,0,1,2.16,2.6,9.12,9.12,0,0,1,.7,3.64v14.52h-3.16v-14.2a5.12,5.12,0,0,0-.54-2.4,4.05,4.05,0,0,0-1.54-1.64,4.6,4.6,0,0,0-2.4-.6,11,11,0,0,0-2.44.26,12.17,12.17,0,0,0-2.16.72c-.69.31-1.41.67-2.16,1.1v16.76Z"/><path class="cls-1" d="M290.85,273.89a5.52,5.52,0,0,1-3.88-1.4,5.12,5.12,0,0,1-1.52-4V267a5.33,5.33,0,0,1,1.66-4.08,7.1,7.1,0,0,1,5-1.56h7.24v-2.64a5.06,5.06,0,0,0-.46-2.26,3.13,3.13,0,0,0-1.64-1.46,8.76,8.76,0,0,0-3.42-.52h-6.64v-1.88c.93-.16,2-.31,3.26-.44a42.53,42.53,0,0,1,4.38-.2,11.58,11.58,0,0,1,4.32.64,4.88,4.88,0,0,1,2.54,2.14,7.76,7.76,0,0,1,.82,3.82v15.08h-2.44l-.6-2.44a4.86,4.86,0,0,1-1,.56c-.55.27-1.24.57-2.08.9a21.71,21.71,0,0,1-2.72.86A11.92,11.92,0,0,1,290.85,273.89Zm1.32-2.36a6.17,6.17,0,0,0,1.64-.16c.61-.13,1.24-.29,1.88-.46s1.23-.35,1.78-.54,1-.34,1.34-.48a5.33,5.33,0,0,1,.56-.2V263l-6.52.28a4.55,4.55,0,0,0-3.26,1.12,3.78,3.78,0,0,0-1,2.68v1a3.54,3.54,0,0,0,.54,2.06,2.9,2.9,0,0,0,1.36,1.1A5.43,5.43,0,0,0,292.17,271.53Z"/><path class="cls-1" d="M313.73,248.49a.56.56,0,0,1-.64-.64v-3.12a.56.56,0,0,1,.64-.64H316a.56.56,0,0,1,.46.18.74.74,0,0,1,.14.46v3.12c0,.43-.2.64-.6.64Zm-.48,25.16V252.29h3.16v21.36Z"/><path class="cls-1" d="M327.25,273.65V252.29h2.48l.68,2.36a17.27,17.27,0,0,1,3.56-1.9,11.19,11.19,0,0,1,4.24-.82,6.52,6.52,0,0,1,3.8,1,6,6,0,0,1,2.12,2.64,9.25,9.25,0,0,1,.68,3.56v14.52h-3.16V259.49a5.26,5.26,0,0,0-.54-2.42,4.13,4.13,0,0,0-1.52-1.66,4.55,4.55,0,0,0-2.42-.6,11.25,11.25,0,0,0-2.46.26,11.65,11.65,0,0,0-2.16.72c-.68.31-1.4.67-2.14,1.1v16.76Z"/><path class="cls-2" d="M372.25,273.65V254.89H369v-2l3.28-.56v-2.44a11.37,11.37,0,0,1,.56-3.82,4.39,4.39,0,0,1,1.88-2.34,7.13,7.13,0,0,1,3.68-.8,17.82,17.82,0,0,1,2.38.14l1.74.26v2.24h-3.56a4.37,4.37,0,0,0-2.2.46,2.31,2.31,0,0,0-1,1.4,8.08,8.08,0,0,0-.28,2.3v2.6h6.64v2.6h-6.64v18.76Z"/><path class="cls-2" d="M399.05,273.89a15.33,15.33,0,0,1-4.06-.48,6.24,6.24,0,0,1-2.9-1.68,7.29,7.29,0,0,1-1.72-3.34,21.76,21.76,0,0,1-.56-5.46,22,22,0,0,1,.56-5.5,7.16,7.16,0,0,1,1.72-3.32,6.26,6.26,0,0,1,2.9-1.64,15.81,15.81,0,0,1,4.06-.46,15.38,15.38,0,0,1,4.06.48,6.44,6.44,0,0,1,2.9,1.66,7.47,7.47,0,0,1,1.74,3.32,26.18,26.18,0,0,1,0,11,7.55,7.55,0,0,1-1.72,3.32,6.2,6.2,0,0,1-2.9,1.66A15.65,15.65,0,0,1,399.05,273.89Zm0-2.6a10.91,10.91,0,0,0,2.62-.28,3.65,3.65,0,0,0,1.9-1.12,5.8,5.8,0,0,0,1.16-2.52,20.26,20.26,0,0,0,.4-4.44,19.94,19.94,0,0,0-.4-4.44,5.79,5.79,0,0,0-1.16-2.48,3.72,3.72,0,0,0-1.9-1.12,10.91,10.91,0,0,0-2.62-.28,10.74,10.74,0,0,0-2.64.28,3.66,3.66,0,0,0-1.88,1.12,5.57,5.57,0,0,0-1.16,2.48,19.36,19.36,0,0,0-.4,4.44,19.66,19.66,0,0,0,.4,4.44,5.58,5.58,0,0,0,1.16,2.52,3.6,3.6,0,0,0,1.88,1.12A10.74,10.74,0,0,0,399.05,271.29Z"/><path class="cls-2" d="M418.41,273.65V252.29h2.4l.76,3.72a13.9,13.9,0,0,1,3.22-2.84,7.48,7.48,0,0,1,4.1-1.12c.37,0,.72,0,1.06,0a5.59,5.59,0,0,1,.94.16v3.24c-.35-.05-.72-.1-1.12-.14s-.8-.06-1.2-.06a8.87,8.87,0,0,0-2.64.36,7.9,7.9,0,0,0-2.2,1.08,18.8,18.8,0,0,0-2.16,1.76v15.16Z"/><path class="cls-3" d="M455.25,273.65V244.21h10.64q3.8,0,5.7,1.88c1.26,1.25,1.9,3.15,1.9,5.68a8.4,8.4,0,0,1-.56,3.2,6.21,6.21,0,0,1-1.5,2.22,5.13,5.13,0,0,1-2.1,1.18,8.33,8.33,0,0,1,1.7.66,6.53,6.53,0,0,1,1.7,1.3,6.62,6.62,0,0,1,1.3,2.12,8.42,8.42,0,0,1,.5,3,10.14,10.14,0,0,1-1,4.9,5.57,5.57,0,0,1-2.84,2.52,11.68,11.68,0,0,1-4.4.74Zm3.2-16.4h7.64a4,4,0,0,0,3.1-1.36,5.47,5.47,0,0,0,1.26-3.68c.05-1.89-.36-3.22-1.22-4a4.89,4.89,0,0,0-3.34-1.14h-7.44Zm0,13.56h7.76a7,7,0,0,0,2.78-.5,3.69,3.69,0,0,0,1.84-1.76,7.85,7.85,0,0,0,.66-3.58,5.41,5.41,0,0,0-.7-2.8,4.72,4.72,0,0,0-1.9-1.78,5.81,5.81,0,0,0-2.68-.62h-7.76Z"/><path class="cls-3" d="M490.45,273.89a6.52,6.52,0,0,1-4.74-1.6c-1.11-1.06-1.66-2.72-1.66-5v-15h3.16v14.24c0,1.79.4,3,1.22,3.62a5.46,5.46,0,0,0,3.42.94,10.47,10.47,0,0,0,3.44-.54,18.27,18.27,0,0,0,3.2-1.5V252.29h3.16v21.36h-2.48l-.68-2.36a20.23,20.23,0,0,1-3.7,1.82A12.18,12.18,0,0,1,490.45,273.89Z"/><path class="cls-3" d="M519.73,273.89c-.54,0-1.19,0-2,0l-2.42-.12q-1.26-.08-2.28-.18a13.29,13.29,0,0,1-1.58-.22v-1.92h8.76a11.57,11.57,0,0,0,2.28-.2,2.44,2.44,0,0,0,1.5-.88,3.23,3.23,0,0,0,.54-2v-1a2.72,2.72,0,0,0-.92-2.18,4.56,4.56,0,0,0-3-.78h-3a10.64,10.64,0,0,1-3.34-.48,4.2,4.2,0,0,1-2.26-1.64,5.51,5.51,0,0,1-.8-3.2v-1.12a6.22,6.22,0,0,1,.78-3.28,4.74,4.74,0,0,1,2.44-1.92,12,12,0,0,1,4.3-.64c.74,0,1.6,0,2.58.08s1.92.13,2.86.22,1.69.19,2.28.3v1.92h-8.24a6,6,0,0,0-3.14.68,2.84,2.84,0,0,0-1.1,2.64v.88a2.81,2.81,0,0,0,.52,1.86,2.49,2.49,0,0,0,1.46.82,10.73,10.73,0,0,0,2.18.2h3a6.83,6.83,0,0,1,4.52,1.36,4.88,4.88,0,0,1,1.6,3.92v1.48a4.6,4.6,0,0,1-3.66,5A15.22,15.22,0,0,1,519.73,273.89Z"/><path class="cls-3" d="M537.61,248.49a.56.56,0,0,1-.64-.64v-3.12a.56.56,0,0,1,.64-.64h2.24a.56.56,0,0,1,.46.18.74.74,0,0,1,.14.46v3.12c0,.43-.2.64-.6.64Zm-.48,25.16V252.29h3.16v21.36Z"/><path class="cls-3" d="M551.13,273.65V252.29h2.48l.68,2.36a17.27,17.27,0,0,1,3.56-1.9,11.19,11.19,0,0,1,4.24-.82,6.52,6.52,0,0,1,3.8,1,6,6,0,0,1,2.12,2.64,9.25,9.25,0,0,1,.68,3.56v14.52h-3.16V259.49a5.26,5.26,0,0,0-.54-2.42,4.13,4.13,0,0,0-1.52-1.66,4.57,4.57,0,0,0-2.42-.6,11.25,11.25,0,0,0-2.46.26,11.65,11.65,0,0,0-2.16.72c-.68.31-1.4.67-2.14,1.1v16.76Z"/><path class="cls-3" d="M587.57,273.89a11.63,11.63,0,0,1-5.3-1,5.71,5.71,0,0,1-2.78-3.4,20.53,20.53,0,0,1-.84-6.56,20.06,20.06,0,0,1,.86-6.62,5.65,5.65,0,0,1,2.82-3.34,12.09,12.09,0,0,1,5.28-1,14.11,14.11,0,0,1,4.62.64,4.78,4.78,0,0,1,2.64,2.18,8.85,8.85,0,0,1,.86,4.26,5.51,5.51,0,0,1-.74,3,4.12,4.12,0,0,1-2.12,1.64,9.67,9.67,0,0,1-3.26.5h-7.8a14.06,14.06,0,0,0,.56,4.18,3.72,3.72,0,0,0,1.9,2.28,9.19,9.19,0,0,0,4.06.7h6.88v1.92c-1.23.16-2.43.29-3.6.4S589.09,273.89,587.57,273.89Zm-5.8-11.72h7.6a4.38,4.38,0,0,0,2.66-.66,2.84,2.84,0,0,0,.86-2.38,6.22,6.22,0,0,0-.54-2.86,3,3,0,0,0-1.68-1.44,9.08,9.08,0,0,0-3.06-.42,7.74,7.74,0,0,0-3.52.66,3.66,3.66,0,0,0-1.8,2.34A16.78,16.78,0,0,0,581.77,262.17Z"/><path class="cls-3" d="M613.17,273.89c-.54,0-1.19,0-2,0l-2.43-.12c-.83-.05-1.59-.11-2.27-.18a13,13,0,0,1-1.58-.22v-1.92h8.76a11.64,11.64,0,0,0,2.28-.2,2.44,2.44,0,0,0,1.5-.88,3.29,3.29,0,0,0,.54-2v-1a2.72,2.72,0,0,0-.92-2.18,4.56,4.56,0,0,0-3-.78h-3a10.75,10.75,0,0,1-3.35-.48,4.21,4.21,0,0,1-2.25-1.64,5.51,5.51,0,0,1-.8-3.2v-1.12a6.22,6.22,0,0,1,.78-3.28,4.74,4.74,0,0,1,2.44-1.92,12,12,0,0,1,4.3-.64c.74,0,1.6,0,2.57.08s1.93.13,2.87.22,1.69.19,2.28.3v1.92h-8.24a6,6,0,0,0-3.14.68,2.84,2.84,0,0,0-1.1,2.64v.88a2.81,2.81,0,0,0,.52,1.86,2.49,2.49,0,0,0,1.46.82,10.73,10.73,0,0,0,2.18.2h3a6.83,6.83,0,0,1,4.52,1.36,4.88,4.88,0,0,1,1.6,3.92v1.48a4.62,4.62,0,0,1-3.66,5A15.22,15.22,0,0,1,613.17,273.89Z"/><path class="cls-3" d="M637.93,273.89c-.54,0-1.19,0-2,0l-2.43-.12c-.84-.05-1.59-.11-2.27-.18a13,13,0,0,1-1.58-.22v-1.92h8.76a11.71,11.71,0,0,0,2.28-.2,2.5,2.5,0,0,0,1.5-.88,3.29,3.29,0,0,0,.54-2v-1a2.72,2.72,0,0,0-.92-2.18,4.58,4.58,0,0,0-3-.78h-3a10.75,10.75,0,0,1-3.35-.48,4.27,4.27,0,0,1-2.26-1.64,5.59,5.59,0,0,1-.79-3.2v-1.12a6.13,6.13,0,0,1,.78-3.28,4.72,4.72,0,0,1,2.43-1.92,12.09,12.09,0,0,1,4.31-.64c.74,0,1.6,0,2.57.08s1.93.13,2.87.22,1.69.19,2.28.3v1.92h-8.24a6,6,0,0,0-3.14.68,2.84,2.84,0,0,0-1.11,2.64v.88a2.81,2.81,0,0,0,.53,1.86,2.49,2.49,0,0,0,1.46.82,10.69,10.69,0,0,0,2.17.2h3.05a6.83,6.83,0,0,1,4.52,1.36,4.88,4.88,0,0,1,1.6,3.92v1.48a4.62,4.62,0,0,1-3.67,5A15.09,15.09,0,0,1,637.93,273.89Z"/><path class="cls-3" d="M758.55,159.42,671.08,7.93a15.85,15.85,0,0,0-27.46,0L556.15,159.42a15.85,15.85,0,0,0,13.74,23.78H744.81a15.85,15.85,0,0,0,13.74-23.78Zm-20,4.33H576.12L657.35,23.06Z"/><path class="cls-2" d="M300.57,187.86c-48.54,0-81.15-32.61-81.15-81.15V13.27a9.77,9.77,0,1,1,19.53,0v93.44c0,37.44,24.18,61.62,61.62,61.62s61.62-24.18,61.62-61.62V20.9c0-12.33,8.11-15.85,10.59-16.64,6.58-2.08,14.26.8,18.79,7L509.9,161V13.27a9.77,9.77,0,1,1,19.53,0V170.4c0,8.27-4,14.46-10.62,16.57s-14.26-.77-18.76-6.95L381.72,30.3v76.41C381.72,155.25,349.11,187.86,300.57,187.86Z"/><path class="cls-1" d="M215.18,172.9,122.07,11.47a15.78,15.78,0,0,0-13.79-8h-.07a15.78,15.78,0,0,0-13.79,8L1.31,172.9a9.76,9.76,0,1,0,16.91,9.76l90-155.93,90,155.93a9.76,9.76,0,1,0,16.91-9.76Z"/></svg>